<mxfile host="app.diagrams.net" agent="Mozilla/5.0 (Macintosh; Intel Mac OS X 10_15_7) AppleWebKit/605.1.15 (KHTML, like Gecko) Version/18.1.1 Safari/605.1.15" version="26.2.13">
  <diagram name="Page-1" id="hvk_bZZvlfvlDv9tCUaG">
    <mxGraphModel dx="1198" dy="2072" grid="1" gridSize="10" guides="1" tooltips="1" connect="1" arrows="1" fold="1" page="1" pageScale="1" pageWidth="850" pageHeight="1100" math="0" shadow="0">
      <root>
        <mxCell id="0" />
        <mxCell id="1" parent="0" />
        <mxCell id="rdoXWai72FaAfEw6Tc3U-6" value="" style="ellipse;shape=cloud;whiteSpace=wrap;html=1;" vertex="1" parent="1">
          <mxGeometry x="130" y="-80" width="940" height="480" as="geometry" />
        </mxCell>
        <mxCell id="rdoXWai72FaAfEw6Tc3U-27" style="edgeStyle=orthogonalEdgeStyle;rounded=0;orthogonalLoop=1;jettySize=auto;html=1;" edge="1" parent="1" source="rdoXWai72FaAfEw6Tc3U-2" target="rdoXWai72FaAfEw6Tc3U-26">
          <mxGeometry relative="1" as="geometry" />
        </mxCell>
        <mxCell id="rdoXWai72FaAfEw6Tc3U-2" value="data collection&lt;div&gt;&amp;nbsp;client&lt;div&gt;&lt;br&gt;&lt;/div&gt;&lt;/div&gt;" style="sketch=0;aspect=fixed;pointerEvents=1;shadow=0;dashed=0;html=1;strokeColor=none;labelPosition=center;verticalLabelPosition=bottom;verticalAlign=top;align=center;fillColor=#00188D;shape=mxgraph.mscae.enterprise.android_phone" vertex="1" parent="1">
          <mxGeometry x="95" y="240" width="30" height="50" as="geometry" />
        </mxCell>
        <mxCell id="rdoXWai72FaAfEw6Tc3U-28" style="edgeStyle=orthogonalEdgeStyle;rounded=0;orthogonalLoop=1;jettySize=auto;html=1;" edge="1" parent="1" source="rdoXWai72FaAfEw6Tc3U-3" target="rdoXWai72FaAfEw6Tc3U-26">
          <mxGeometry relative="1" as="geometry" />
        </mxCell>
        <mxCell id="rdoXWai72FaAfEw6Tc3U-3" value="data collection&lt;div&gt;client&lt;/div&gt;" style="sketch=0;aspect=fixed;pointerEvents=1;shadow=0;dashed=0;html=1;strokeColor=none;labelPosition=center;verticalLabelPosition=bottom;verticalAlign=top;align=center;fillColor=#00188D;shape=mxgraph.mscae.enterprise.android_phone" vertex="1" parent="1">
          <mxGeometry x="95" y="360" width="30" height="50" as="geometry" />
        </mxCell>
        <mxCell id="rdoXWai72FaAfEw6Tc3U-4" value="data collection&lt;div&gt;&amp;nbsp;client&lt;/div&gt;" style="sketch=0;aspect=fixed;pointerEvents=1;shadow=0;dashed=0;html=1;strokeColor=none;labelPosition=center;verticalLabelPosition=bottom;verticalAlign=top;align=center;fillColor=#00188D;shape=mxgraph.mscae.enterprise.android_phone" vertex="1" parent="1">
          <mxGeometry x="180" y="430" width="30" height="50" as="geometry" />
        </mxCell>
        <mxCell id="rdoXWai72FaAfEw6Tc3U-33" value="" style="edgeStyle=orthogonalEdgeStyle;rounded=0;orthogonalLoop=1;jettySize=auto;html=1;" edge="1" parent="1" source="rdoXWai72FaAfEw6Tc3U-7" target="rdoXWai72FaAfEw6Tc3U-9">
          <mxGeometry relative="1" as="geometry" />
        </mxCell>
        <mxCell id="rdoXWai72FaAfEw6Tc3U-7" value="DB-1&lt;div&gt;(raw data)&lt;/div&gt;" style="shape=cylinder3;whiteSpace=wrap;html=1;boundedLbl=1;backgroundOutline=1;size=15;" vertex="1" parent="1">
          <mxGeometry x="544" y="128" width="50" height="70" as="geometry" />
        </mxCell>
        <mxCell id="rdoXWai72FaAfEw6Tc3U-32" value="" style="edgeStyle=orthogonalEdgeStyle;rounded=0;orthogonalLoop=1;jettySize=auto;html=1;" edge="1" parent="1" source="rdoXWai72FaAfEw6Tc3U-8" target="rdoXWai72FaAfEw6Tc3U-7">
          <mxGeometry relative="1" as="geometry" />
        </mxCell>
        <mxCell id="rdoXWai72FaAfEw6Tc3U-8" value="&lt;b style=&quot;color: light-dark(rgb(0, 0, 0), rgb(252, 252, 252));&quot;&gt;Queue service&lt;/b&gt;" style="sketch=0;outlineConnect=0;fontColor=#232F3E;gradientColor=none;fillColor=#E7157B;strokeColor=none;dashed=0;verticalLabelPosition=bottom;verticalAlign=top;align=center;html=1;fontSize=12;fontStyle=0;aspect=fixed;pointerEvents=1;shape=mxgraph.aws4.queue;" vertex="1" parent="1">
          <mxGeometry x="390" y="139.5" width="78" height="47" as="geometry" />
        </mxCell>
        <mxCell id="rdoXWai72FaAfEw6Tc3U-34" value="" style="edgeStyle=orthogonalEdgeStyle;rounded=0;orthogonalLoop=1;jettySize=auto;html=1;" edge="1" parent="1" source="rdoXWai72FaAfEw6Tc3U-9" target="rdoXWai72FaAfEw6Tc3U-10">
          <mxGeometry relative="1" as="geometry" />
        </mxCell>
        <mxCell id="rdoXWai72FaAfEw6Tc3U-9" value="Data pipeline" style="outlineConnect=0;dashed=0;verticalLabelPosition=bottom;verticalAlign=top;align=center;html=1;shape=mxgraph.aws3.data_pipeline;fillColor=#F58534;gradientColor=none;" vertex="1" parent="1">
          <mxGeometry x="660" y="122" width="67.5" height="81" as="geometry" />
        </mxCell>
        <mxCell id="rdoXWai72FaAfEw6Tc3U-19" style="edgeStyle=orthogonalEdgeStyle;rounded=0;orthogonalLoop=1;jettySize=auto;html=1;entryX=0.25;entryY=0;entryDx=0;entryDy=0;" edge="1" parent="1" source="rdoXWai72FaAfEw6Tc3U-10" target="rdoXWai72FaAfEw6Tc3U-20">
          <mxGeometry relative="1" as="geometry">
            <mxPoint x="969" y="480" as="targetPoint" />
          </mxGeometry>
        </mxCell>
        <mxCell id="rdoXWai72FaAfEw6Tc3U-41" value="" style="edgeStyle=orthogonalEdgeStyle;rounded=0;orthogonalLoop=1;jettySize=auto;html=1;" edge="1" parent="1" source="rdoXWai72FaAfEw6Tc3U-10" target="rdoXWai72FaAfEw6Tc3U-40">
          <mxGeometry relative="1" as="geometry" />
        </mxCell>
        <mxCell id="rdoXWai72FaAfEw6Tc3U-10" value="&lt;div&gt;DB-2&lt;/div&gt;Processed data" style="shape=cylinder3;whiteSpace=wrap;html=1;boundedLbl=1;backgroundOutline=1;size=15;" vertex="1" parent="1">
          <mxGeometry x="826" y="127" width="50" height="70" as="geometry" />
        </mxCell>
        <mxCell id="rdoXWai72FaAfEw6Tc3U-25" style="edgeStyle=orthogonalEdgeStyle;rounded=0;orthogonalLoop=1;jettySize=auto;html=1;exitX=1;exitY=0.5;exitDx=0;exitDy=0;exitPerimeter=0;" edge="1" parent="1" source="rdoXWai72FaAfEw6Tc3U-11" target="rdoXWai72FaAfEw6Tc3U-20">
          <mxGeometry relative="1" as="geometry" />
        </mxCell>
        <mxCell id="rdoXWai72FaAfEw6Tc3U-50" style="edgeStyle=orthogonalEdgeStyle;rounded=0;orthogonalLoop=1;jettySize=auto;html=1;entryX=0.5;entryY=1;entryDx=0;entryDy=0;curved=1;startArrow=classic;startFill=0;endArrow=none;dashed=1;" edge="1" parent="1" source="rdoXWai72FaAfEw6Tc3U-11" target="rdoXWai72FaAfEw6Tc3U-26">
          <mxGeometry relative="1" as="geometry" />
        </mxCell>
        <mxCell id="rdoXWai72FaAfEw6Tc3U-51" value="End device/account&lt;div&gt;&amp;nbsp;management data path&lt;/div&gt;" style="edgeLabel;html=1;align=center;verticalAlign=middle;resizable=0;points=[];" vertex="1" connectable="0" parent="rdoXWai72FaAfEw6Tc3U-50">
          <mxGeometry x="-0.1052" y="-10" relative="1" as="geometry">
            <mxPoint as="offset" />
          </mxGeometry>
        </mxCell>
        <mxCell id="rdoXWai72FaAfEw6Tc3U-11" value="&lt;b&gt;Client Config&lt;/b&gt;" style="sketch=0;points=[[0,0,0],[0.25,0,0],[0.5,0,0],[0.75,0,0],[1,0,0],[0,1,0],[0.25,1,0],[0.5,1,0],[0.75,1,0],[1,1,0],[0,0.25,0],[0,0.5,0],[0,0.75,0],[1,0.25,0],[1,0.5,0],[1,0.75,0]];points=[[0,0,0],[0.25,0,0],[0.5,0,0],[0.75,0,0],[1,0,0],[0,1,0],[0.25,1,0],[0.5,1,0],[0.75,1,0],[1,1,0],[0,0.25,0],[0,0.5,0],[0,0.75,0],[1,0.25,0],[1,0.5,0],[1,0.75,0]];outlineConnect=0;fontColor=#232F3E;fillColor=#E7157B;strokeColor=#ffffff;dashed=0;verticalLabelPosition=bottom;verticalAlign=top;align=center;html=1;fontSize=12;fontStyle=0;aspect=fixed;shape=mxgraph.aws4.resourceIcon;resIcon=mxgraph.aws4.config;" vertex="1" parent="1">
          <mxGeometry x="657" y="247" width="48" height="48" as="geometry" />
        </mxCell>
        <mxCell id="rdoXWai72FaAfEw6Tc3U-39" value="" style="edgeStyle=orthogonalEdgeStyle;rounded=0;orthogonalLoop=1;jettySize=auto;html=1;" edge="1" parent="1" source="rdoXWai72FaAfEw6Tc3U-13">
          <mxGeometry relative="1" as="geometry">
            <mxPoint x="850" y="300" as="targetPoint" />
          </mxGeometry>
        </mxCell>
        <mxCell id="rdoXWai72FaAfEw6Tc3U-13" value="web client" style="verticalLabelPosition=bottom;sketch=0;aspect=fixed;html=1;verticalAlign=top;strokeColor=none;align=center;outlineConnect=0;shape=mxgraph.citrix.laptop_2;" vertex="1" parent="1">
          <mxGeometry x="623" y="464" width="116" height="86.5" as="geometry" />
        </mxCell>
        <mxCell id="rdoXWai72FaAfEw6Tc3U-38" value="" style="edgeStyle=orthogonalEdgeStyle;rounded=0;orthogonalLoop=1;jettySize=auto;html=1;entryX=0.25;entryY=1;entryDx=0;entryDy=0;" edge="1" parent="1" source="rdoXWai72FaAfEw6Tc3U-14" target="rdoXWai72FaAfEw6Tc3U-20">
          <mxGeometry relative="1" as="geometry" />
        </mxCell>
        <mxCell id="rdoXWai72FaAfEw6Tc3U-14" value="&lt;span style=&quot;color: light-dark(rgb(0, 0, 0), rgb(252, 252, 252));&quot;&gt;web client&lt;/span&gt;&lt;div&gt;&lt;br&gt;&lt;/div&gt;" style="fontColor=#0066CC;verticalAlign=top;verticalLabelPosition=bottom;labelPosition=center;align=center;html=1;outlineConnect=0;fillColor=#CCCCCC;strokeColor=#6881B3;gradientColor=none;gradientDirection=north;strokeWidth=2;shape=mxgraph.networks.pc;" vertex="1" parent="1">
          <mxGeometry x="960" y="380" width="100" height="70" as="geometry" />
        </mxCell>
        <mxCell id="rdoXWai72FaAfEw6Tc3U-20" value="&lt;b&gt;Data Visualization&amp;nbsp;&lt;/b&gt;&lt;div&gt;&lt;b&gt;Web Server&lt;/b&gt;&lt;/div&gt;" style="image;aspect=fixed;perimeter=ellipsePerimeter;html=1;align=center;shadow=0;dashed=0;spacingTop=3;image=img/lib/active_directory/web_server.svg;" vertex="1" parent="1">
          <mxGeometry x="839" y="245" width="40" height="50" as="geometry" />
        </mxCell>
        <mxCell id="rdoXWai72FaAfEw6Tc3U-30" value="" style="edgeStyle=orthogonalEdgeStyle;rounded=0;orthogonalLoop=1;jettySize=auto;html=1;" edge="1" parent="1" source="rdoXWai72FaAfEw6Tc3U-26" target="rdoXWai72FaAfEw6Tc3U-8">
          <mxGeometry relative="1" as="geometry" />
        </mxCell>
        <mxCell id="rdoXWai72FaAfEw6Tc3U-26" value="&lt;b&gt;Data Collector&lt;/b&gt;&lt;div&gt;&lt;b&gt;&amp;nbsp;Server&lt;/b&gt;&lt;/div&gt;" style="image;aspect=fixed;perimeter=ellipsePerimeter;html=1;align=center;shadow=0;dashed=0;spacingTop=3;image=img/lib/active_directory/web_server.svg;" vertex="1" parent="1">
          <mxGeometry x="300" y="138" width="40" height="50" as="geometry" />
        </mxCell>
        <mxCell id="rdoXWai72FaAfEw6Tc3U-40" value="AI based quality boost&lt;div&gt;(optional)&lt;/div&gt;" style="image;aspect=fixed;html=1;points=[];align=center;fontSize=12;image=img/lib/azure2/ai_machine_learning/Azure_Applied_AI.svg;" vertex="1" parent="1">
          <mxGeometry x="817" y="30" width="68" height="52" as="geometry" />
        </mxCell>
        <mxCell id="rdoXWai72FaAfEw6Tc3U-49" value="&amp;nbsp;Public Cloud" style="text;html=1;align=center;verticalAlign=middle;whiteSpace=wrap;rounded=0;" vertex="1" parent="1">
          <mxGeometry x="460" y="-10" width="120" height="30" as="geometry" />
        </mxCell>
      </root>
    </mxGraphModel>
  </diagram>
</mxfile>
